# xmcd CD database file
#
# Track frame offsets:
#	150
#	15098
#	37539
#	60292
#	83845
#	101957
#	118702
#	143752
#	164301
#	182202
#	204724
#	228600
#
# Disc length: 3153 seconds
#
# Revision: 0
# Processed by: cddbd v1.5.2PL0 Copyright (c) Steve Scherf et al.
# Submitted via: CDex 1.51
#
DISCID=920c4f0c
DTITLE=Yoko Aoyagi - HOW?
DYEAR=1900
DGENRE=Jazz
TTITLE0=I Can't Give You Anything But Love
TTITLE1=Cry Me A River
TTITLE2=Lover Come Back To Me
TTITLE3=Misty
TTITLE4=My Blue Heaven
TTITLE5=Just Friends
TTITLE6=Willow Weep For Me
TTITLE7=Georgia On My Mind
TTITLE8=The Lady Is A Tramp
TTITLE9=Angel's Kiss
TTITLE10=You And The Night And The Music~Y.N.M.
TTITLE11=Tennessee Waltz
EXTD=
EXTT0=
EXTT1=
EXTT2=
EXTT3=
EXTT4=
EXTT5=
EXTT6=
EXTT7=
EXTT8=
EXTT9=
EXTT10=
EXTT11=
PLAYORDER=
